<?xml version="1.0" standalone="no"?>
<!DOCTYPE svg PUBLIC "-//W3C//DTD SVG 20010904//EN"
 "http://www.w3.org/TR/2001/REC-SVG-20010904/DTD/svg10.dtd">
<svg version="1.0" xmlns="http://www.w3.org/2000/svg"
 width="1024.000000pt" height="1024.000000pt" viewBox="0 0 1024.000000 1024.000000"
 preserveAspectRatio="xMidYMid meet">

<g transform="translate(0.000000,1024.000000) scale(0.100000,-0.100000)"
fill="#000000" stroke="none">
<path d="M4185 7889 c-119 -17 -257 -78 -352 -155 -61 -50 -157 -174 -193
-248 -98 -206 -103 -469 -15 -741 41 -127 142 -338 210 -440 183 -271 356
-397 570 -412 106 -7 183 8 280 56 128 63 219 168 273 315 l27 71 0 460 c0
445 -1 463 -23 540 -85 307 -312 519 -592 554 -94 12 -100 12 -185 0z m259
-282 c88 -41 184 -143 223 -238 53 -127 58 -184 58 -611 0 -307 -3 -390 -13
-400 -11 -11 -12 -8 -8 17 4 17 4 24 0 18 -4 -9 -12 -8 -32 5 -15 9 -30 21
-34 26 -4 6 -13 5 -22 -3 -9 -8 -16 -10 -16 -5 0 4 -5 3 -12 -4 -15 -15 -48
-16 -48 -2 0 20 5 25 23 24 13 -1 15 2 6 12 -6 7 -8 18 -4 24 5 8 -1 11 -16 8
-15 -2 -24 -9 -23 -20 2 -18 -19 -22 -193 -33 -64 -5 -93 -3 -93 4 0 6 -9 11
-21 11 -35 0 -19 -35 16 -36 77 -3 85 -5 85 -18 0 -16 -21 -26 -55 -26 -13 0
-25 -4 -27 -10 -1 -5 -17 -10 -34 -12 -18 -1 -31 -8 -31 -15 0 -8 5 -12 11
-10 6 3 20 -3 30 -12 17 -14 19 -14 14 0 -4 10 -1 16 8 16 12 0 12 -4 -1 -23
-9 -14 -11 -25 -5 -29 6 -3 10 -11 10 -16 0 -5 -11 -2 -25 7 -14 9 -23 19 -21
22 3 2 -6 13 -19 24 -18 14 -23 26 -20 50 5 40 0 47 -25 41 -11 -3 -17 -9 -14
-15 3 -5 11 -5 19 2 10 8 13 5 13 -15 0 -14 -5 -25 -11 -25 -6 0 -7 3 -4 6 3
4 -5 16 -19 26 -14 11 -23 23 -20 25 3 3 -3 13 -13 22 -34 30 -130 203 -171
308 -65 165 -82 249 -83 393 0 147 19 220 81 316 62 93 129 145 239 184 85 30
216 24 297 -13z m-157 -1293 c-3 -3 -12 -4 -19 -1 -8 3 -5 6 6 6 11 1 17 -2
13 -5z m406 -11 c-3 -7 -6 -13 -8 -13 -2 0 -5 6 -8 13 -3 8 1 14 8 14 7 0 11
-6 8 -14z m-36 -15 c-3 -8 -6 -5 -6 6 -1 11 2 17 5 13 3 -3 4 -12 1 -19z
m-377 -63 c0 -12 -19 -12 -23 0 -4 9 -1 12 9 8 7 -3 14 -7 14 -8z m335 -25
c-3 -5 -12 -10 -18 -10 -7 0 -6 4 3 10 19 12 23 12 15 0z m-257 -21 c26 -9 26
-9 -3 -4 -16 3 -35 6 -42 7 -7 1 -10 5 -7 10 3 5 10 6 15 2 6 -3 23 -10 37
-15z"/>
<path d="M4056 6547 c3 -10 9 -15 12 -12 3 3 0 11 -7 18 -10 9 -11 8 -5 -6z"/>
<path d="M4320 6490 c0 -5 18 -10 40 -10 22 0 40 5 40 10 0 6 -18 10 -40 10
-22 0 -40 -4 -40 -10z"/>
<path d="M4050 6485 c0 -5 5 -17 10 -25 5 -8 10 -10 10 -5 0 6 -5 17 -10 25
-5 8 -10 11 -10 5z"/>
<path d="M4117 6429 c7 -7 15 -10 18 -7 3 3 -2 9 -12 12 -14 6 -15 5 -6 -5z"/>
<path d="M4161 6414 c0 -11 3 -14 6 -6 3 7 2 16 -1 19 -3 4 -6 -2 -5 -13z"/>
<path d="M4199 6297 c6 -8 7 -18 3 -22 -4 -5 -1 -5 6 -1 10 6 10 11 1 22 -6 8
-14 14 -16 14 -3 0 0 -6 6 -13z"/>
<path d="M5857 7889 c-150 -20 -320 -114 -416 -229 -97 -117 -150 -226 -180
-377 -19 -92 -21 -137 -21 -490 0 -233 4 -413 11 -449 16 -90 78 -209 149
-287 98 -106 239 -167 390 -167 84 0 204 34 285 82 227 133 471 514 562 875
24 95 27 127 27 268 0 175 -10 234 -64 351 -92 203 -278 364 -472 408 -88 20
-191 26 -271 15z m273 -285 c125 -59 213 -165 256 -309 26 -83 25 -292 0 -390
-24 -91 -66 -196 -76 -190 -5 3 -6 -3 -4 -12 5 -23 -71 -169 -86 -165 -6 1 -9
-2 -5 -7 7 -12 -44 -93 -55 -86 -4 3 -7 -3 -6 -12 0 -9 -10 -22 -23 -29 -13
-7 -28 -21 -33 -31 -8 -16 -7 -16 6 1 9 11 18 17 22 14 3 -3 -14 -25 -37 -48
-31 -31 -44 -38 -50 -28 -5 7 -9 8 -9 2 0 -18 13 -24 27 -13 28 24 11 1 -24
-32 -21 -19 -29 -23 -18 -9 l20 24 -33 -24 c-19 -14 -46 -36 -61 -50 -16 -14
-41 -31 -57 -39 -38 -17 -108 -26 -99 -12 3 6 -1 11 -9 11 -9 0 -16 -3 -16 -8
0 -4 -18 -6 -40 -4 -22 2 -40 8 -40 13 0 5 -3 8 -7 8 -20 -3 -33 3 -65 34 -19
18 -32 39 -30 46 3 9 0 11 -8 6 -9 -5 -10 -1 -5 16 4 17 3 20 -3 10 -8 -11
-12 -10 -20 5 -5 11 -10 21 -10 24 0 3 -7 19 -14 35 -10 23 -13 120 -13 425 0
343 2 405 18 470 24 106 68 191 128 255 98 104 178 137 319 132 81 -2 104 -7
160 -33z m-155 -1384 c-3 -5 -16 -15 -28 -21 -21 -10 -21 -9 2 10 25 23 36 27
26 11z"/>
<path d="M6071 6654 c0 -11 3 -14 6 -6 3 7 2 16 -1 19 -3 4 -6 -2 -5 -13z"/>
<path d="M6026 6520 c5 -33 4 -40 -10 -40 -11 0 -16 9 -16 26 0 22 -2 25 -15
14 -8 -7 -15 -19 -15 -26 0 -8 7 -14 15 -14 8 0 15 -8 15 -19 0 -10 7 -24 15
-31 25 -21 38 2 40 70 2 52 -1 60 -17 60 -16 0 -17 -5 -12 -40z"/>
<path d="M6185 6549 c-4 -6 -5 -12 -2 -15 2 -3 7 2 10 11 7 17 1 20 -8 4z"/>
<path d="M6110 6465 c0 -15 18 -40 24 -34 3 3 -1 14 -9 25 -8 10 -14 15 -15 9z"/>
<path d="M6087 6420 c-3 -11 -1 -20 4 -20 5 0 9 9 9 20 0 11 -2 20 -4 20 -2 0
-6 -9 -9 -20z"/>
<path d="M5761 6419 c-1 -9 -10 -19 -21 -22 -21 -5 -26 -36 -11 -65 4 -9 6
-34 4 -54 -4 -31 -9 -38 -27 -38 -28 -1 -73 -35 -57 -44 14 -9 33 2 25 15 -8
13 45 6 54 -7 13 -19 40 -23 59 -8 17 13 17 14 -4 20 -16 4 -23 14 -23 30 0
20 5 24 33 25 17 0 26 3 20 6 -20 8 -15 23 7 23 15 0 20 -7 20 -27 0 -16 4
-35 10 -43 8 -12 10 -12 16 3 5 14 9 15 20 6 12 -10 13 -9 8 4 -3 9 1 24 10
32 9 9 16 13 16 8 0 -10 20 19 20 30 0 4 -11 7 -25 7 -16 0 -25 6 -25 15 0 9
-11 21 -25 27 -19 8 -25 19 -25 42 0 23 -3 27 -12 18 -16 -16 -55 -15 -61 1
-4 7 -6 6 -6 -4z m19 -59 c0 -22 -4 -40 -10 -40 -5 0 -10 18 -10 40 0 22 5 40
10 40 6 0 10 -18 10 -40z"/>
<path d="M5953 6395 c-3 -9 -3 -18 0 -21 10 -10 47 7 47 22 0 19 -39 18 -47
-1z"/>
<path d="M5900 6388 c0 -7 5 -20 10 -28 8 -12 10 -9 10 13 0 15 -4 27 -10 27
-5 0 -10 -6 -10 -12z"/>
<path d="M5960 6311 c0 -6 5 -13 10 -16 6 -3 10 1 10 9 0 9 -4 16 -10 16 -5 0
-10 -4 -10 -9z"/>
<path d="M5790 6228 c0 -7 33 -28 44 -28 3 0 6 9 6 20 0 15 -6 19 -25 18 -14
-1 -25 -6 -25 -10z"/>
<path d="M2805 6546 c-128 -32 -240 -100 -336 -204 -135 -147 -188 -278 -196
-492 -6 -156 7 -242 64 -405 106 -306 339 -627 568 -785 202 -139 445 -157
665 -49 165 82 296 249 345 439 76 301 -36 733 -289 1113 -146 219 -284 329
-474 378 -88 22 -267 25 -347 5z m294 -255 c147 -46 279 -194 419 -469 160
-314 203 -601 116 -778 -30 -61 -45 -68 -18 -8 24 53 27 61 16 46 -7 -11 -12
-10 -25 3 -9 9 -32 17 -51 18 -19 2 -38 6 -42 10 -4 4 -12 7 -18 7 -6 0 -4 -5
4 -10 10 -7 -9 -10 -62 -10 -71 0 -78 -2 -78 -20 0 -18 -7 -20 -80 -20 -73 0
-80 2 -80 20 0 11 -4 20 -10 20 -5 0 -10 -7 -10 -15 0 -10 -10 -15 -30 -15
-28 0 -30 3 -30 35 0 34 -1 35 -40 35 -22 0 -40 -4 -40 -10 0 -5 14 -10 30
-10 28 0 30 -2 30 -40 0 -22 5 -40 11 -40 6 0 3 -7 -5 -16 -11 -10 -34 -15
-70 -15 -32 0 -62 -6 -73 -15 -17 -14 -17 -15 5 -30 12 -9 22 -23 22 -31 0
-13 3 -13 15 -3 10 8 12 16 6 19 -6 4 -2 12 10 19 18 12 19 10 16 -12 -1 -14
-6 -28 -10 -32 -11 -12 -8 -26 5 -18 7 4 8 3 4 -4 -4 -6 6 -18 24 -27 16 -8
30 -18 30 -21 0 -16 -75 40 -143 108 -61 61 -78 84 -74 99 3 12 3 18 0 15 -4
-3 -13 0 -22 7 -14 11 -15 10 -2 -8 14 -19 14 -19 -4 -3 -16 15 -17 19 -4 35
12 16 12 17 -2 6 -13 -11 -20 -7 -46 25 -31 39 -142 216 -144 229 -1 5 -9 24
-19 43 -40 80 -80 221 -91 321 -29 265 75 471 280 556 73 29 193 31 280 4z
m446 -1221 c3 -5 2 -10 -4 -10 -5 0 -13 5 -16 10 -3 6 -2 10 4 10 5 0 13 -4
16 -10z m-398 -236 c-3 -3 -12 -4 -19 -1 -8 3 -5 6 6 6 11 1 17 -2 13 -5z"/>
<path d="M3220 5220 c0 -5 5 -10 11 -10 5 0 7 5 4 10 -3 6 -8 10 -11 10 -2 0
-4 -4 -4 -10z"/>
<path d="M3264 5199 c-8 -13 13 -36 23 -24 5 4 2 10 -5 12 -6 3 -10 9 -6 14 3
5 3 9 0 9 -3 0 -8 -5 -12 -11z"/>
<path d="M2967 5049 c7 -7 15 -10 18 -7 3 3 -2 9 -12 12 -14 6 -15 5 -6 -5z"/>
<path d="M2917 5016 c17 -15 32 -21 38 -15 13 13 -5 29 -39 35 l-28 5 29 -25z
m24 -3 c13 -16 12 -17 -3 -4 -17 13 -22 21 -14 21 2 0 10 -8 17 -17z"/>
<path d="M7096 6544 c-132 -32 -295 -137 -392 -251 -117 -138 -264 -409 -328
-605 -62 -187 -78 -292 -74 -458 4 -125 8 -156 32 -225 38 -112 93 -200 178
-284 219 -218 551 -240 824 -53 337 228 635 772 634 1152 -1 135 -45 294 -111
407 -19 31 -70 93 -114 138 -64 65 -97 90 -165 123 -47 23 -112 49 -145 57
-75 19 -259 18 -339 -1z m209 -271 c63 -93 91 -284 62 -425 -55 -262 -226
-498 -451 -622 -74 -41 -222 -92 -292 -102 -48 -6 -51 -5 -57 17 -12 45 -7
228 8 301 46 220 173 485 321 669 97 122 225 195 346 198 32 1 41 -4 63 -36z"/>
<path d="M4985 5545 c-175 -32 -308 -106 -432 -239 -76 -81 -123 -158 -211
-351 -192 -418 -281 -533 -627 -810 -330 -265 -422 -383 -476 -613 -17 -72
-20 -110 -17 -217 4 -113 8 -141 35 -218 43 -122 85 -188 183 -287 68 -70 103
-95 175 -132 119 -60 195 -78 332 -78 201 0 298 38 574 226 263 179 403 234
599 234 210 0 353 -60 645 -270 103 -74 194 -124 286 -156 109 -38 291 -45
408 -15 366 92 598 438 552 821 -23 183 -96 339 -223 475 -61 65 -201 183
-333 280 -75 55 -206 179 -270 255 -109 130 -175 247 -295 517 -109 244 -195
359 -344 458 -174 115 -366 156 -561 120z m260 -257 c107 -27 231 -119 299
-222 20 -30 36 -56 36 -59 0 -3 -42 -15 -92 -27 -246 -61 -414 -154 -564 -312
l-68 -73 69 -7 c231 -24 334 -51 491 -129 58 -28 151 -86 208 -129 94 -71 111
-80 178 -93 127 -27 259 -83 371 -159 31 -21 57 -40 57 -41 0 -1 -71 -2 -158
-2 -163 0 -223 -10 -352 -57 -76 -27 -205 -96 -259 -137 l-45 -34 -66 16 c-87
22 -191 37 -268 37 -83 0 -250 -25 -337 -51 -90 -27 -236 -95 -311 -146 -32
-22 -104 -70 -159 -107 -120 -82 -292 -167 -395 -196 -85 -24 -290 -37 -355
-23 l-40 9 3 59 c3 78 44 194 92 265 44 65 108 124 260 243 167 129 284 232
353 310 179 202 258 330 381 618 31 74 72 161 90 193 70 123 210 230 336 255
30 6 64 13 75 15 27 5 120 -3 170 -16z"/>
</g>
</svg>
